<svg xmlns="http://www.w3.org/2000/svg" xmlns:xlink="http://www.w3.org/1999/xlink" width="25" height="25" viewBox="0 0 1200 1200"><rect width="100%" height="100%" fill="#fff"></rect><g transform="translate(600 600) scale(0.69 0.69) rotate(0) translate(-600 -600)" style="fill:#ffffff"><svg fill="red" xmlns="http://www.w3.org/2000/svg" viewBox="0 0 24 24" x="0px" y="0px"><title>Artboard 2</title><path d="M22,4H16.9A5,5,0,0,0,7.1,4H2A1,1,0,0,0,2,6H3V20.5A3.5,3.5,0,0,0,6.5,24h11A3.5,3.5,0,0,0,21,20.5V6h1a1,1,0,0,0,0-2ZM12,2a3,3,0,0,1,2.82,2H9.18A3,3,0,0,1,12,2Zm7,18.5A1.5,1.5,0,0,1,17.5,22H6.5A1.5,1.5,0,0,1,5,20.5V6H19Z"></path><path d="M8,19a1,1,0,0,0,1-1V10a1,1,0,0,0-2,0v8A1,1,0,0,0,8,19Z"></path><path d="M12,19a1,1,0,0,0,1-1V10a1,1,0,0,0-2,0v8A1,1,0,0,0,12,19Z"></path><path d="M16,19a1,1,0,0,0,1-1V10a1,1,0,0,0-2,0v8A1,1,0,0,0,16,19Z"></path></svg></g></svg>